<svg width="297" height="76" viewBox="0 0 297 76" fill="none" xmlns="http://www.w3.org/2000/svg">
<g filter="url(#filter0_d_341_6123)">
<path d="M2.36914 19.1016C2.36914 17.9297 2.79232 17.1647 3.63867 16.8066C4.51758 16.4486 9.90495 16.123 19.8008 15.8301C19.9635 17.1973 19.9635 19.0853 19.8008 21.4941C23.9023 19.0853 27.6133 17.4577 30.9336 16.6113C34.2539 15.765 37.1836 15.3418 39.7227 15.3418C40.8945 15.3418 41.6758 15.4883 42.0664 15.7812C42.457 16.0417 42.6523 16.6764 42.6523 17.6855C42.6523 19.4759 42.3757 21.3477 41.8223 23.3008C41.3014 25.2214 40.6341 26.4583 39.8203 27.0117C39.0391 27.5651 37.7858 27.972 36.0605 28.2324C34.3353 28.4928 33.3262 28.5579 33.0332 28.4277C32.7728 28.2975 31.8613 27.207 30.2988 25.1562C27.89 25.1562 26.0345 26.0352 24.7324 27.793C23.4629 29.5182 22.8281 33.9941 22.8281 41.2207C22.8281 47.8288 22.9095 53.5254 23.0723 58.3105H30.7383C31.3242 59.3848 31.6172 60.5892 31.6172 61.9238C31.6172 63.0632 31.373 63.8607 30.8848 64.3164C30.429 64.7721 29.5176 65 28.1504 65H3.24805C2.66211 63.6328 2.36914 62.347 2.36914 61.1426C2.36914 60.1335 2.59701 59.4173 3.05273 58.9941C3.50846 58.5384 4.24089 58.3105 5.25 58.3105H8.81445C8.97721 53.5254 9.05859 47.9753 9.05859 41.6602C9.05859 32.5456 8.61914 27.1582 7.74023 25.498C6.89388 23.8379 5.39648 23.0078 3.24805 23.0078C2.66211 21.7057 2.36914 20.4036 2.36914 19.1016ZM70.8262 23.7402C68.4173 23.7402 66.5781 24.7168 65.3086 26.6699C64.0391 28.623 63.388 32.0247 63.3555 36.875H65.9434C69.5566 36.875 72.3073 36.7773 74.1953 36.582C76.1159 36.3542 77.2389 35.9961 77.5645 35.5078C77.89 34.987 78.0527 34.1406 78.0527 32.9688C78.0527 30.0391 77.418 27.7767 76.1484 26.1816C74.8789 24.554 73.1048 23.7402 70.8262 23.7402ZM72.7793 15.293C79.5501 15.293 84.4655 16.8392 87.5254 19.9316C90.5853 22.9915 92.1152 27.8418 92.1152 34.4824C92.1152 37.7702 91.4642 40.1139 90.1621 41.5137C88.86 42.9134 86.0117 43.6133 81.6172 43.6133H63.4531C63.5508 47.8776 64.5111 51.2305 66.334 53.6719C68.1569 56.0807 71.3633 57.2852 75.9531 57.2852C80.4453 57.2852 85.0677 55.9831 89.8203 53.3789C91.513 55.0391 92.3594 56.8294 92.3594 58.75C92.3594 61.3542 90.4388 63.1771 86.5977 64.2188C82.7891 65.2279 78.3132 65.7324 73.1699 65.7324C64.3158 65.7324 57.8867 63.9421 53.8828 60.3613C49.8789 56.7806 47.877 50.8724 47.877 42.6367C47.877 34.0755 50.123 27.3861 54.6152 22.5684C59.14 17.7181 65.1947 15.293 72.7793 15.293ZM123.805 65.9766C114.788 65.9766 108.489 64.3164 104.908 60.9961C101.327 57.6432 99.5371 51.9141 99.5371 43.8086C99.5371 34.694 101.865 27.6628 106.52 22.7148C111.207 17.7669 118.189 15.293 127.467 15.293C132.35 15.293 135.719 15.7161 137.574 16.5625C139.462 17.4089 140.439 18.8249 140.504 20.8105C140.504 23.3496 139.706 25.6608 138.111 27.7441C132.708 25.0749 128.313 23.7402 124.928 23.7402C121.542 23.7402 119.036 24.9447 117.408 27.3535C115.813 29.7298 115.016 33.929 115.016 39.9512C115.016 45.9082 115.797 50.3353 117.359 53.2324C118.954 56.097 121.835 57.5293 126.002 57.5293C129.387 57.5293 133.733 56.276 139.039 53.7695C140.406 55.6576 141.09 57.6432 141.09 59.7266C141.09 61.8424 139.365 63.4212 135.914 64.4629C132.464 65.472 128.427 65.9766 123.805 65.9766ZM178.443 61.2402C176.002 62.4772 173.219 63.584 170.094 64.5605C166.969 65.5046 164.023 65.9766 161.256 65.9766C156.536 65.9766 153.069 64.8861 150.855 62.7051C148.674 60.5241 147.584 57.4642 147.584 53.5254C147.584 48.0241 149.472 43.9388 153.248 41.2695C157.024 38.6003 162.981 37.2656 171.119 37.2656H176.441C176.148 32.2526 175.318 28.8346 173.951 27.0117C172.584 25.1562 170.533 24.2285 167.799 24.2285C166.301 24.2285 164.674 24.4238 162.916 24.8145C161.777 26.9629 161.093 28.1022 160.865 28.2324C160.67 28.3626 159.547 28.6556 157.496 29.1113C155.478 29.5671 154.046 29.4206 153.199 28.6719C152.353 27.9232 151.49 26.6048 150.611 24.7168C149.765 22.8288 149.342 21.2337 149.342 19.9316C149.342 19.1178 149.667 18.4831 150.318 18.0273C151.002 17.5716 153.476 17.0833 157.74 16.5625C162.005 16.0417 166.546 15.7812 171.363 15.7812C177.092 15.7812 181.585 16.7741 184.84 18.7598C188.095 20.7129 189.723 24.5215 189.723 30.1855V43.125C189.723 50.319 190.032 54.7461 190.65 56.4062C191.269 58.0339 192.376 58.6686 193.971 58.3105C194.459 59.222 194.703 60.1172 194.703 60.9961C194.703 62.4609 193.824 63.584 192.066 64.3652C190.341 65.1139 187.997 65.4883 185.035 65.4883C183.733 65.4883 182.708 65.3255 181.959 65C181.21 64.6745 180.038 63.4212 178.443 61.2402ZM176.441 45.0293C174.098 44.541 171.721 44.2969 169.312 44.2969C166.578 44.2969 164.625 44.7526 163.453 45.6641C162.281 46.5755 161.695 48.3008 161.695 50.8398C161.695 53.0534 162.265 54.7298 163.404 55.8691C164.576 56.9759 166.269 57.5293 168.482 57.5293C170.24 57.5293 171.786 57.1549 173.121 56.4062C174.488 55.6576 175.383 54.5996 175.807 53.2324C176.23 51.8327 176.441 50.026 176.441 47.8125V45.0293ZM225.66 15.293C230.576 15.293 234.368 15.765 237.037 16.709C239.706 17.6204 241.041 19.1667 241.041 21.3477C241.041 23.6589 240.113 26.0026 238.258 28.3789C231.227 25.2865 225.839 23.7402 222.096 23.7402C220.11 23.7402 218.629 24.1146 217.652 24.8633C216.708 25.612 216.236 26.6862 216.236 28.0859C216.236 29.5508 216.871 30.8203 218.141 31.8945C219.443 32.9688 222.421 34.3359 227.076 35.9961C232.512 37.8516 236.37 39.8861 238.648 42.0996C240.96 44.3132 242.115 47.2266 242.115 50.8398C242.115 55.7227 240.113 59.4661 236.109 62.0703C232.138 64.6745 226.751 65.9766 219.947 65.9766C213.665 65.9766 209.189 65.5534 206.52 64.707C203.85 63.8281 202.499 62.0378 202.467 59.3359C202.467 57.3177 203.264 55.332 204.859 53.3789C211.337 56.1458 217.083 57.5293 222.096 57.5293C224.146 57.5293 225.742 57.1875 226.881 56.5039C228.02 55.8203 228.59 54.681 228.59 53.0859C228.59 51.2305 227.581 49.7493 225.562 48.6426C223.577 47.5358 220.37 46.1361 215.943 44.4434C211.191 42.6204 207.789 40.6673 205.738 38.584C203.72 36.4681 202.711 33.7663 202.711 30.4785C202.711 25.8561 204.729 22.1777 208.766 19.4434C212.835 16.6764 218.466 15.293 225.66 15.293ZM255.201 16.709L260.035 2.01172C261.695 2.5 263.225 3.13477 264.625 3.91602C266.057 4.69727 267.132 5.59245 267.848 6.60156C268.596 7.61068 268.971 10.1009 268.971 14.0723V16.709H285.475C286.028 18.0111 286.305 19.3945 286.305 20.8594C286.305 22.0964 286.077 22.9264 285.621 23.3496C285.165 23.7728 284.286 23.9844 282.984 23.9844H268.971V43.2715C268.971 48.8704 269.443 52.679 270.387 54.6973C271.331 56.7155 272.893 57.7734 275.074 57.8711C277.288 57.9362 279.973 57.1549 283.131 55.5273C284.075 56.7969 284.547 58.2454 284.547 59.873C284.547 62.0866 283.375 63.584 281.031 64.3652C278.72 65.1139 275.107 65.4883 270.191 65.4883C264.82 65.4883 260.979 64.4141 258.668 62.2656C256.389 60.1172 255.25 55.9505 255.25 49.7656V41.2695C255.25 35.8984 255.087 30.1367 254.762 23.9844H249.781C249.195 22.5846 248.902 21.1686 248.902 19.7363C248.902 18.6296 249.114 17.8483 249.537 17.3926C249.993 16.9368 250.742 16.709 251.783 16.709H255.201Z" fill="white"/>
</g>
<defs>
<filter id="filter0_d_341_6123" x="0.369141" y="0.0117188" width="295.936" height="75.9648" filterUnits="userSpaceOnUse" color-interpolation-filters="sRGB">
<feFlood flood-opacity="0" result="BackgroundImageFix"/>
<feColorMatrix in="SourceAlpha" type="matrix" values="0 0 0 0 0 0 0 0 0 0 0 0 0 0 0 0 0 0 127 0" result="hardAlpha"/>
<feOffset dx="4" dy="4"/>
<feGaussianBlur stdDeviation="3"/>
<feComposite in2="hardAlpha" operator="out"/>
<feColorMatrix type="matrix" values="0 0 0 0 0 0 0 0 0 0 0 0 0 0 0 0 0 0 0.25 0"/>
<feBlend mode="normal" in2="BackgroundImageFix" result="effect1_dropShadow_341_6123"/>
<feBlend mode="normal" in="SourceGraphic" in2="effect1_dropShadow_341_6123" result="shape"/>
</filter>
</defs>
</svg>
