<svg width="492" height="83" viewBox="0 0 492 83" fill="none" xmlns="http://www.w3.org/2000/svg">
<g filter="url(#filter0_d_341_6116)">
<path d="M97.2891 5.34961C97.875 6.55404 98.168 7.75846 98.168 8.96289C98.168 10.1348 97.9564 10.9486 97.5332 11.4043C97.11 11.8275 96.4264 12.0391 95.4824 12.0391H93.1387C91.3158 18.9727 88.7116 29.5846 85.3262 43.875C81.9408 58.1654 79.5319 66.5801 78.0996 69.1191C76.6673 71.6582 73.5098 72.9277 68.627 72.9277C62.8652 72.9277 59.6914 72.7487 59.1055 72.3906C58.5521 72.0326 56.9733 63.9759 54.3691 48.2207C51.7975 32.4329 50.4303 24.5391 50.2676 24.5391C50.1048 24.5391 48.7865 31.3424 46.3125 44.9492C43.8711 58.5234 41.9342 66.5801 40.502 69.1191C39.0697 71.6582 35.9121 72.9277 31.0293 72.9277C25.8535 72.9277 22.9889 72.7487 22.4355 72.3906C21.8822 72.0326 19.7174 63.6504 15.9414 47.2441C12.1979 30.8053 9.20312 19.0703 6.95703 12.0391H2.85547C2.30208 10.6068 2.02539 9.23958 2.02539 7.9375C2.02539 7.02604 2.26953 6.375 2.75781 5.98438C3.24609 5.5612 3.96224 5.34961 4.90625 5.34961H29.1738C29.7272 6.55404 30.0039 7.75846 30.0039 8.96289C30.0039 10.1348 29.7923 10.9486 29.3691 11.4043C28.946 11.8275 28.2624 12.0391 27.3184 12.0391H24.9258C25.2839 16.2057 26.6836 25.0599 29.125 38.6016C31.5664 52.1107 33.0964 58.8652 33.7148 58.8652C34.3333 58.8652 36.1562 50.125 39.1836 32.6445C42.2109 15.1641 43.985 6.24479 44.5059 5.88672C45.0592 5.52865 48.8027 5.34961 55.7363 5.34961C58.1777 5.34961 59.8542 5.83789 60.7656 6.81445C61.7096 7.75846 63.6302 16.6777 66.5273 33.5723C69.4245 50.4342 71.166 58.8652 71.752 58.8652C72.3704 58.8652 73.8027 52.1758 76.0488 38.7969C78.2949 25.418 79.5319 16.4987 79.7598 12.0391H75.6582C75.0723 10.6068 74.7793 9.23958 74.7793 7.9375C74.7793 7.02604 75.0234 6.375 75.5117 5.98438C76 5.5612 76.7161 5.34961 77.6602 5.34961H97.2891ZM121.166 30.7402C118.757 30.7402 116.918 31.7168 115.648 33.6699C114.379 35.623 113.728 39.0247 113.695 43.875H116.283C119.896 43.875 122.647 43.7773 124.535 43.582C126.456 43.3542 127.579 42.9961 127.904 42.5078C128.23 41.987 128.393 41.1406 128.393 39.9688C128.393 37.0391 127.758 34.7767 126.488 33.1816C125.219 31.554 123.445 30.7402 121.166 30.7402ZM123.119 22.293C129.89 22.293 134.805 23.8392 137.865 26.9316C140.925 29.9915 142.455 34.8418 142.455 41.4824C142.455 44.7702 141.804 47.1139 140.502 48.5137C139.2 49.9134 136.352 50.6133 131.957 50.6133H113.793C113.891 54.8776 114.851 58.2305 116.674 60.6719C118.497 63.0807 121.703 64.2852 126.293 64.2852C130.785 64.2852 135.408 62.9831 140.16 60.3789C141.853 62.0391 142.699 63.8294 142.699 65.75C142.699 68.3542 140.779 70.1771 136.938 71.2188C133.129 72.2279 128.653 72.7324 123.51 72.7324C114.656 72.7324 108.227 70.9421 104.223 67.3613C100.219 63.7806 98.2168 57.8724 98.2168 49.6367C98.2168 41.0755 100.463 34.3861 104.955 29.5684C109.48 24.7181 115.535 22.293 123.119 22.293ZM180.834 68.2402C178.393 69.4772 175.609 70.584 172.484 71.5605C169.359 72.5046 166.413 72.9766 163.646 72.9766C158.926 72.9766 155.46 71.8861 153.246 69.7051C151.065 67.5241 149.975 64.4642 149.975 60.5254C149.975 55.0241 151.863 50.9388 155.639 48.2695C159.415 45.6003 165.372 44.2656 173.51 44.2656H178.832C178.539 39.2526 177.709 35.8346 176.342 34.0117C174.975 32.1562 172.924 31.2285 170.189 31.2285C168.692 31.2285 167.064 31.4238 165.307 31.8145C164.167 33.9629 163.484 35.1022 163.256 35.2324C163.061 35.3626 161.938 35.6556 159.887 36.1113C157.868 36.5671 156.436 36.4206 155.59 35.6719C154.743 34.9232 153.881 33.6048 153.002 31.7168C152.156 29.8288 151.732 28.2337 151.732 26.9316C151.732 26.1178 152.058 25.4831 152.709 25.0273C153.393 24.5716 155.867 24.0833 160.131 23.5625C164.395 23.0417 168.936 22.7812 173.754 22.7812C179.483 22.7812 183.975 23.7741 187.23 25.7598C190.486 27.7129 192.113 31.5215 192.113 37.1855V50.125C192.113 57.319 192.423 61.7461 193.041 63.4062C193.66 65.0339 194.766 65.6686 196.361 65.3105C196.85 66.222 197.094 67.1172 197.094 67.9961C197.094 69.4609 196.215 70.584 194.457 71.3652C192.732 72.1139 190.388 72.4883 187.426 72.4883C186.124 72.4883 185.098 72.3255 184.35 72C183.601 71.6745 182.429 70.4212 180.834 68.2402ZM178.832 52.0293C176.488 51.541 174.112 51.2969 171.703 51.2969C168.969 51.2969 167.016 51.7526 165.844 52.6641C164.672 53.5755 164.086 55.3008 164.086 57.8398C164.086 60.0534 164.656 61.7298 165.795 62.8691C166.967 63.9759 168.66 64.5293 170.873 64.5293C172.631 64.5293 174.177 64.1549 175.512 63.4062C176.879 62.6576 177.774 61.5996 178.197 60.2324C178.62 58.8327 178.832 57.026 178.832 54.8125V52.0293ZM209.35 23.709L214.184 9.01172C215.844 9.5 217.374 10.1348 218.773 10.916C220.206 11.6973 221.28 12.5924 221.996 13.6016C222.745 14.6107 223.119 17.1009 223.119 21.0723V23.709H239.623C240.176 25.0111 240.453 26.3945 240.453 27.8594C240.453 29.0964 240.225 29.9264 239.77 30.3496C239.314 30.7728 238.435 30.9844 237.133 30.9844H223.119V50.2715C223.119 55.8704 223.591 59.679 224.535 61.6973C225.479 63.7155 227.042 64.7734 229.223 64.8711C231.436 64.9362 234.122 64.1549 237.279 62.5273C238.223 63.7969 238.695 65.2454 238.695 66.873C238.695 69.0866 237.523 70.584 235.18 71.3652C232.868 72.1139 229.255 72.4883 224.34 72.4883C218.969 72.4883 215.128 71.4141 212.816 69.2656C210.538 67.1172 209.398 62.9505 209.398 56.7656V48.2695C209.398 42.8984 209.236 37.1367 208.91 30.9844H203.93C203.344 29.5846 203.051 28.1686 203.051 26.7363C203.051 25.6296 203.262 24.8483 203.686 24.3926C204.141 23.9368 204.89 23.709 205.932 23.709H209.35ZM251.195 22.6348C251.195 21.3652 251.13 19.7702 251 17.8496C250.902 15.929 250.674 14.2852 250.316 12.918C249.958 11.5182 249.324 10.623 248.412 10.2324C247.533 9.80924 246.361 9.59766 244.896 9.59766C244.343 8.26302 244.066 6.92839 244.066 5.59375C244.066 4.22656 244.571 3.36393 245.58 3.00586C246.589 2.61523 249.877 2.41992 255.443 2.41992C258.894 2.41992 261.238 2.56641 262.475 2.85938C263.744 3.11979 264.477 3.62435 264.672 4.37305C264.867 5.12174 264.965 6.17969 264.965 7.54688V26.8828C267.016 25.7109 269.457 24.6693 272.289 23.7578C275.154 22.8138 278.018 22.3418 280.883 22.3418C285.147 22.3418 288.386 23.3509 290.6 25.3691C292.846 27.3874 293.969 31.4564 293.969 37.5762C293.969 53.5918 294.262 62.2344 294.848 63.5039C295.434 64.7409 296.703 65.3431 298.656 65.3105C299.145 66.4824 299.389 67.7031 299.389 68.9727C299.389 70.1445 298.998 70.9421 298.217 71.3652C297.468 71.7884 296.02 72 293.871 72C288.598 72 285.261 71.9186 283.861 71.7559C282.462 71.5931 281.501 71.0723 280.98 70.1934C280.46 69.2819 280.199 67.7682 280.199 65.6523V48.416C280.199 41.7754 279.581 37.332 278.344 35.0859C277.139 32.8073 275.17 31.668 272.436 31.668C270.124 31.668 268.301 32.3516 266.967 33.7188C265.632 35.0534 264.965 37.8691 264.965 42.166V51.9805C264.965 56.082 265.046 60.5254 265.209 65.3105H271.02C271.573 66.3848 271.85 67.5892 271.85 68.9238C271.85 70.0632 271.605 70.8607 271.117 71.3164C270.661 71.7721 269.75 72 268.383 72H245.385C244.799 70.6328 244.506 69.347 244.506 68.1426C244.506 67.1335 244.734 66.4173 245.189 65.9941C245.645 65.5384 246.378 65.3105 247.387 65.3105H250.951C251.114 59.9395 251.195 54.8939 251.195 50.1738V22.6348ZM328.881 30.7402C326.472 30.7402 324.633 31.7168 323.363 33.6699C322.094 35.623 321.443 39.0247 321.41 43.875H323.998C327.611 43.875 330.362 43.7773 332.25 43.582C334.171 43.3542 335.294 42.9961 335.619 42.5078C335.945 41.987 336.107 41.1406 336.107 39.9688C336.107 37.0391 335.473 34.7767 334.203 33.1816C332.934 31.554 331.16 30.7402 328.881 30.7402ZM330.834 22.293C337.605 22.293 342.52 23.8392 345.58 26.9316C348.64 29.9915 350.17 34.8418 350.17 41.4824C350.17 44.7702 349.519 47.1139 348.217 48.5137C346.915 49.9134 344.066 50.6133 339.672 50.6133H321.508C321.605 54.8776 322.566 58.2305 324.389 60.6719C326.212 63.0807 329.418 64.2852 334.008 64.2852C338.5 64.2852 343.122 62.9831 347.875 60.3789C349.568 62.0391 350.414 63.8294 350.414 65.75C350.414 68.3542 348.493 70.1771 344.652 71.2188C340.844 72.2279 336.368 72.7324 331.225 72.7324C322.37 72.7324 315.941 70.9421 311.938 67.3613C307.934 63.7806 305.932 57.8724 305.932 49.6367C305.932 41.0755 308.178 34.3861 312.67 29.5684C317.195 24.7181 323.249 22.293 330.834 22.293ZM357.592 26.1016C357.592 24.9297 358.015 24.1647 358.861 23.8066C359.74 23.4486 365.128 23.123 375.023 22.8301C375.186 24.1973 375.186 26.0853 375.023 28.4941C379.125 26.0853 382.836 24.4577 386.156 23.6113C389.477 22.765 392.406 22.3418 394.945 22.3418C396.117 22.3418 396.898 22.4883 397.289 22.7812C397.68 23.0417 397.875 23.6764 397.875 24.6855C397.875 26.4759 397.598 28.3477 397.045 30.3008C396.524 32.2214 395.857 33.4583 395.043 34.0117C394.262 34.5651 393.008 34.972 391.283 35.2324C389.558 35.4928 388.549 35.5579 388.256 35.4277C387.995 35.2975 387.084 34.207 385.521 32.1562C383.113 32.1562 381.257 33.0352 379.955 34.793C378.686 36.5182 378.051 40.9941 378.051 48.2207C378.051 54.8288 378.132 60.5254 378.295 65.3105H385.961C386.547 66.3848 386.84 67.5892 386.84 68.9238C386.84 70.0632 386.596 70.8607 386.107 71.3164C385.652 71.7721 384.74 72 383.373 72H358.471C357.885 70.6328 357.592 69.347 357.592 68.1426C357.592 67.1335 357.82 66.4173 358.275 65.9941C358.731 65.5384 359.464 65.3105 360.473 65.3105H364.037C364.2 60.5254 364.281 54.9753 364.281 48.6602C364.281 39.5456 363.842 34.1582 362.963 32.498C362.117 30.8379 360.619 30.0078 358.471 30.0078C357.885 28.7057 357.592 27.4036 357.592 26.1016ZM476.098 5.34961C478.181 5.34961 479.662 5.67513 480.541 6.32617C481.452 6.94466 481.908 8.24674 481.908 10.2324C481.908 12.6413 481.111 15.1152 479.516 17.6543C472.68 14.8874 463.923 13.5039 453.246 13.5039H450.902C450.707 16.694 450.609 23.6764 450.609 34.4512H474.584C475.137 36.1764 475.414 37.9668 475.414 39.8223C475.414 40.929 475.219 41.6777 474.828 42.0684C474.438 42.4264 473.705 42.6055 472.631 42.6055H450.609C450.642 54.4219 450.74 61.9902 450.902 65.3105H459.35C459.903 66.4824 460.18 67.6868 460.18 68.9238C460.18 70.0632 459.968 70.8607 459.545 71.3164C459.122 71.7721 458.438 72 457.494 72H429.662C429.076 70.5677 428.783 69.1842 428.783 67.8496C428.783 66.9707 429.027 66.3359 429.516 65.9453C430.004 65.5221 430.72 65.3105 431.664 65.3105H435.229C435.424 61.1439 435.521 50.2389 435.521 32.5957C435.521 23.0579 435.424 16.2057 435.229 12.0391H429.662C429.076 10.6068 428.783 9.23958 428.783 7.9375C428.783 7.02604 429.027 6.375 429.516 5.98438C430.004 5.5612 430.72 5.34961 431.664 5.34961H476.098Z" fill="white"/>
</g>
<defs>
<filter id="filter0_d_341_6116" x="0.0253906" y="0.419922" width="491.883" height="82.5566" filterUnits="userSpaceOnUse" color-interpolation-filters="sRGB">
<feFlood flood-opacity="0" result="BackgroundImageFix"/>
<feColorMatrix in="SourceAlpha" type="matrix" values="0 0 0 0 0 0 0 0 0 0 0 0 0 0 0 0 0 0 127 0" result="hardAlpha"/>
<feOffset dx="4" dy="4"/>
<feGaussianBlur stdDeviation="3"/>
<feComposite in2="hardAlpha" operator="out"/>
<feColorMatrix type="matrix" values="0 0 0 0 0 0 0 0 0 0 0 0 0 0 0 0 0 0 0.25 0"/>
<feBlend mode="normal" in2="BackgroundImageFix" result="effect1_dropShadow_341_6116"/>
<feBlend mode="normal" in="SourceGraphic" in2="effect1_dropShadow_341_6116" result="shape"/>
</filter>
</defs>
</svg>
