<svg width="862" height="116" viewBox="0 0 862 116" fill="none" xmlns="http://www.w3.org/2000/svg">
<g filter="url(#filter0_d_341_6109)">
<path d="M524.75 82.625C534.07 82.625 541.625 75.0698 541.625 65.75C541.625 56.4302 534.07 48.875 524.75 48.875C515.43 48.875 507.875 56.4302 507.875 65.75C507.875 75.0698 515.43 82.625 524.75 82.625Z" stroke="#FFC700" stroke-width="8" stroke-linecap="round"/>
<path d="M524.75 96.125V99.5M555.125 65.75H558.5M524.75 35.375V32M494.375 65.75H491" stroke="#FFC700" stroke-width="8" stroke-linecap="round"/>
<path d="M546.688 87.6875L548.375 89.375M546.688 43.8125L548.375 42.125M502.812 43.8125L501.125 42.125M502.812 87.6875L501.125 89.375" stroke="#FFC700" stroke-width="8" stroke-linecap="round"/>
<path d="M98.2891 26.3496C98.875 27.554 99.168 28.7585 99.168 29.9629C99.168 31.1348 98.9564 31.9486 98.5332 32.4043C98.11 32.8275 97.4264 33.0391 96.4824 33.0391H94.1387C92.3158 39.9727 89.7116 50.5846 86.3262 64.875C82.9408 79.1654 80.5319 87.5801 79.0996 90.1191C77.6673 92.6582 74.5098 93.9277 69.627 93.9277C63.8652 93.9277 60.6914 93.7487 60.1055 93.3906C59.5521 93.0326 57.9733 84.9759 55.3691 69.2207C52.7975 53.4329 51.4303 45.5391 51.2676 45.5391C51.1048 45.5391 49.7865 52.3424 47.3125 65.9492C44.8711 79.5234 42.9342 87.5801 41.502 90.1191C40.0697 92.6582 36.9121 93.9277 32.0293 93.9277C26.8535 93.9277 23.9889 93.7487 23.4355 93.3906C22.8822 93.0326 20.7174 84.6504 16.9414 68.2441C13.1979 51.8053 10.2031 40.0703 7.95703 33.0391H3.85547C3.30208 31.6068 3.02539 30.2396 3.02539 28.9375C3.02539 28.026 3.26953 27.375 3.75781 26.9844C4.24609 26.5612 4.96224 26.3496 5.90625 26.3496H30.1738C30.7272 27.554 31.0039 28.7585 31.0039 29.9629C31.0039 31.1348 30.7923 31.9486 30.3691 32.4043C29.946 32.8275 29.2624 33.0391 28.3184 33.0391H25.9258C26.2839 37.2057 27.6836 46.0599 30.125 59.6016C32.5664 73.1107 34.0964 79.8652 34.7148 79.8652C35.3333 79.8652 37.1562 71.125 40.1836 53.6445C43.2109 36.1641 44.985 27.2448 45.5059 26.8867C46.0592 26.5286 49.8027 26.3496 56.7363 26.3496C59.1777 26.3496 60.8542 26.8379 61.7656 27.8145C62.7096 28.7585 64.6302 37.6777 67.5273 54.5723C70.4245 71.4342 72.166 79.8652 72.752 79.8652C73.3704 79.8652 74.8027 73.1758 77.0488 59.7969C79.2949 46.418 80.5319 37.4987 80.7598 33.0391H76.6582C76.0723 31.6068 75.7793 30.2396 75.7793 28.9375C75.7793 28.026 76.0234 27.375 76.5117 26.9844C77 26.5612 77.7161 26.3496 78.6602 26.3496H98.2891ZM122.166 51.7402C119.757 51.7402 117.918 52.7168 116.648 54.6699C115.379 56.623 114.728 60.0247 114.695 64.875H117.283C120.896 64.875 123.647 64.7773 125.535 64.582C127.456 64.3542 128.579 63.9961 128.904 63.5078C129.23 62.987 129.393 62.1406 129.393 60.9688C129.393 58.0391 128.758 55.7767 127.488 54.1816C126.219 52.554 124.445 51.7402 122.166 51.7402ZM124.119 43.293C130.89 43.293 135.805 44.8392 138.865 47.9316C141.925 50.9915 143.455 55.8418 143.455 62.4824C143.455 65.7702 142.804 68.1139 141.502 69.5137C140.2 70.9134 137.352 71.6133 132.957 71.6133H114.793C114.891 75.8776 115.851 79.2305 117.674 81.6719C119.497 84.0807 122.703 85.2852 127.293 85.2852C131.785 85.2852 136.408 83.9831 141.16 81.3789C142.853 83.0391 143.699 84.8294 143.699 86.75C143.699 89.3542 141.779 91.1771 137.938 92.2188C134.129 93.2279 129.653 93.7324 124.51 93.7324C115.656 93.7324 109.227 91.9421 105.223 88.3613C101.219 84.7806 99.2168 78.8724 99.2168 70.6367C99.2168 62.0755 101.463 55.3861 105.955 50.5684C110.48 45.7181 116.535 43.293 124.119 43.293ZM181.834 89.2402C179.393 90.4772 176.609 91.584 173.484 92.5605C170.359 93.5046 167.413 93.9766 164.646 93.9766C159.926 93.9766 156.46 92.8861 154.246 90.7051C152.065 88.5241 150.975 85.4642 150.975 81.5254C150.975 76.0241 152.863 71.9388 156.639 69.2695C160.415 66.6003 166.372 65.2656 174.51 65.2656H179.832C179.539 60.2526 178.709 56.8346 177.342 55.0117C175.975 53.1562 173.924 52.2285 171.189 52.2285C169.692 52.2285 168.064 52.4238 166.307 52.8145C165.167 54.9629 164.484 56.1022 164.256 56.2324C164.061 56.3626 162.938 56.6556 160.887 57.1113C158.868 57.5671 157.436 57.4206 156.59 56.6719C155.743 55.9232 154.881 54.6048 154.002 52.7168C153.156 50.8288 152.732 49.2337 152.732 47.9316C152.732 47.1178 153.058 46.4831 153.709 46.0273C154.393 45.5716 156.867 45.0833 161.131 44.5625C165.395 44.0417 169.936 43.7812 174.754 43.7812C180.483 43.7812 184.975 44.7741 188.23 46.7598C191.486 48.7129 193.113 52.5215 193.113 58.1855V71.125C193.113 78.319 193.423 82.7461 194.041 84.4062C194.66 86.0339 195.766 86.6686 197.361 86.3105C197.85 87.222 198.094 88.1172 198.094 88.9961C198.094 90.4609 197.215 91.584 195.457 92.3652C193.732 93.1139 191.388 93.4883 188.426 93.4883C187.124 93.4883 186.098 93.3255 185.35 93C184.601 92.6745 183.429 91.4212 181.834 89.2402ZM179.832 73.0293C177.488 72.541 175.112 72.2969 172.703 72.2969C169.969 72.2969 168.016 72.7526 166.844 73.6641C165.672 74.5755 165.086 76.3008 165.086 78.8398C165.086 81.0534 165.656 82.7298 166.795 83.8691C167.967 84.9759 169.66 85.5293 171.873 85.5293C173.631 85.5293 175.177 85.1549 176.512 84.4062C177.879 83.6576 178.774 82.5996 179.197 81.2324C179.62 79.8327 179.832 78.026 179.832 75.8125V73.0293ZM210.35 44.709L215.184 30.0117C216.844 30.5 218.374 31.1348 219.773 31.916C221.206 32.6973 222.28 33.5924 222.996 34.6016C223.745 35.6107 224.119 38.1009 224.119 42.0723V44.709H240.623C241.176 46.0111 241.453 47.3945 241.453 48.8594C241.453 50.0964 241.225 50.9264 240.77 51.3496C240.314 51.7728 239.435 51.9844 238.133 51.9844H224.119V71.2715C224.119 76.8704 224.591 80.679 225.535 82.6973C226.479 84.7155 228.042 85.7734 230.223 85.8711C232.436 85.9362 235.122 85.1549 238.279 83.5273C239.223 84.7969 239.695 86.2454 239.695 87.873C239.695 90.0866 238.523 91.584 236.18 92.3652C233.868 93.1139 230.255 93.4883 225.34 93.4883C219.969 93.4883 216.128 92.4141 213.816 90.2656C211.538 88.1172 210.398 83.9505 210.398 77.7656V69.2695C210.398 63.8984 210.236 58.1367 209.91 51.9844H204.93C204.344 50.5846 204.051 49.1686 204.051 47.7363C204.051 46.6296 204.262 45.8483 204.686 45.3926C205.141 44.9368 205.89 44.709 206.932 44.709H210.35ZM252.195 43.6348C252.195 42.3652 252.13 40.7702 252 38.8496C251.902 36.929 251.674 35.2852 251.316 33.918C250.958 32.5182 250.324 31.623 249.412 31.2324C248.533 30.8092 247.361 30.5977 245.896 30.5977C245.343 29.263 245.066 27.9284 245.066 26.5938C245.066 25.2266 245.571 24.3639 246.58 24.0059C247.589 23.6152 250.877 23.4199 256.443 23.4199C259.894 23.4199 262.238 23.5664 263.475 23.8594C264.744 24.1198 265.477 24.6243 265.672 25.373C265.867 26.1217 265.965 27.1797 265.965 28.5469V47.8828C268.016 46.7109 270.457 45.6693 273.289 44.7578C276.154 43.8138 279.018 43.3418 281.883 43.3418C286.147 43.3418 289.386 44.3509 291.6 46.3691C293.846 48.3874 294.969 52.4564 294.969 58.5762C294.969 74.5918 295.262 83.2344 295.848 84.5039C296.434 85.7409 297.703 86.3431 299.656 86.3105C300.145 87.4824 300.389 88.7031 300.389 89.9727C300.389 91.1445 299.998 91.9421 299.217 92.3652C298.468 92.7884 297.02 93 294.871 93C289.598 93 286.261 92.9186 284.861 92.7559C283.462 92.5931 282.501 92.0723 281.98 91.1934C281.46 90.2819 281.199 88.7682 281.199 86.6523V69.416C281.199 62.7754 280.581 58.332 279.344 56.0859C278.139 53.8073 276.17 52.668 273.436 52.668C271.124 52.668 269.301 53.3516 267.967 54.7188C266.632 56.0534 265.965 58.8691 265.965 63.166V72.9805C265.965 77.082 266.046 81.5254 266.209 86.3105H272.02C272.573 87.3848 272.85 88.5892 272.85 89.9238C272.85 91.0632 272.605 91.8607 272.117 92.3164C271.661 92.7721 270.75 93 269.383 93H246.385C245.799 91.6328 245.506 90.347 245.506 89.1426C245.506 88.1335 245.734 87.4173 246.189 86.9941C246.645 86.5384 247.378 86.3105 248.387 86.3105H251.951C252.114 80.9395 252.195 75.8939 252.195 71.1738V43.6348ZM329.881 51.7402C327.472 51.7402 325.633 52.7168 324.363 54.6699C323.094 56.623 322.443 60.0247 322.41 64.875H324.998C328.611 64.875 331.362 64.7773 333.25 64.582C335.171 64.3542 336.294 63.9961 336.619 63.5078C336.945 62.987 337.107 62.1406 337.107 60.9688C337.107 58.0391 336.473 55.7767 335.203 54.1816C333.934 52.554 332.16 51.7402 329.881 51.7402ZM331.834 43.293C338.605 43.293 343.52 44.8392 346.58 47.9316C349.64 50.9915 351.17 55.8418 351.17 62.4824C351.17 65.7702 350.519 68.1139 349.217 69.5137C347.915 70.9134 345.066 71.6133 340.672 71.6133H322.508C322.605 75.8776 323.566 79.2305 325.389 81.6719C327.212 84.0807 330.418 85.2852 335.008 85.2852C339.5 85.2852 344.122 83.9831 348.875 81.3789C350.568 83.0391 351.414 84.8294 351.414 86.75C351.414 89.3542 349.493 91.1771 345.652 92.2188C341.844 93.2279 337.368 93.7324 332.225 93.7324C323.37 93.7324 316.941 91.9421 312.938 88.3613C308.934 84.7806 306.932 78.8724 306.932 70.6367C306.932 62.0755 309.178 55.3861 313.67 50.5684C318.195 45.7181 324.249 43.293 331.834 43.293ZM358.592 47.1016C358.592 45.9297 359.015 45.1647 359.861 44.8066C360.74 44.4486 366.128 44.123 376.023 43.8301C376.186 45.1973 376.186 47.0853 376.023 49.4941C380.125 47.0853 383.836 45.4577 387.156 44.6113C390.477 43.765 393.406 43.3418 395.945 43.3418C397.117 43.3418 397.898 43.4883 398.289 43.7812C398.68 44.0417 398.875 44.6764 398.875 45.6855C398.875 47.4759 398.598 49.3477 398.045 51.3008C397.524 53.2214 396.857 54.4583 396.043 55.0117C395.262 55.5651 394.008 55.972 392.283 56.2324C390.558 56.4928 389.549 56.5579 389.256 56.4277C388.995 56.2975 388.084 55.207 386.521 53.1562C384.113 53.1562 382.257 54.0352 380.955 55.793C379.686 57.5182 379.051 61.9941 379.051 69.2207C379.051 75.8288 379.132 81.5254 379.295 86.3105H386.961C387.547 87.3848 387.84 88.5892 387.84 89.9238C387.84 91.0632 387.596 91.8607 387.107 92.3164C386.652 92.7721 385.74 93 384.373 93H359.471C358.885 91.6328 358.592 90.347 358.592 89.1426C358.592 88.1335 358.82 87.4173 359.275 86.9941C359.731 86.5384 360.464 86.3105 361.473 86.3105H365.037C365.2 81.5254 365.281 75.9753 365.281 69.6602C365.281 60.5456 364.842 55.1582 363.963 53.498C363.117 51.8379 361.619 51.0078 359.471 51.0078C358.885 49.7057 358.592 48.4036 358.592 47.1016ZM477.098 26.3496C479.181 26.3496 480.662 26.6751 481.541 27.3262C482.452 27.9447 482.908 29.2467 482.908 31.2324C482.908 33.6413 482.111 36.1152 480.516 38.6543C473.68 35.8874 464.923 34.5039 454.246 34.5039H451.902C451.707 37.694 451.609 44.6764 451.609 55.4512H475.584C476.137 57.1764 476.414 58.9668 476.414 60.8223C476.414 61.929 476.219 62.6777 475.828 63.0684C475.438 63.4264 474.705 63.6055 473.631 63.6055H451.609C451.642 75.4219 451.74 82.9902 451.902 86.3105H460.35C460.903 87.4824 461.18 88.6868 461.18 89.9238C461.18 91.0632 460.968 91.8607 460.545 92.3164C460.122 92.7721 459.438 93 458.494 93H430.662C430.076 91.5677 429.783 90.1842 429.783 88.8496C429.783 87.9707 430.027 87.3359 430.516 86.9453C431.004 86.5221 431.72 86.3105 432.664 86.3105H436.229C436.424 82.1439 436.521 71.2389 436.521 53.5957C436.521 44.0579 436.424 37.2057 436.229 33.0391H430.662C430.076 31.6068 429.783 30.2396 429.783 28.9375C429.783 28.026 430.027 27.375 430.516 26.9844C431.004 26.5612 431.72 26.3496 432.664 26.3496H477.098ZM568.814 47.1016C568.814 45.9297 569.238 45.1647 570.084 44.8066C570.963 44.4486 576.35 44.123 586.246 43.8301C586.409 45.1973 586.409 47.0853 586.246 49.4941C590.348 47.0853 594.059 45.4577 597.379 44.6113C600.699 43.765 603.629 43.3418 606.168 43.3418C607.34 43.3418 608.121 43.4883 608.512 43.7812C608.902 44.0417 609.098 44.6764 609.098 45.6855C609.098 47.4759 608.821 49.3477 608.268 51.3008C607.747 53.2214 607.079 54.4583 606.266 55.0117C605.484 55.5651 604.231 55.972 602.506 56.2324C600.781 56.4928 599.771 56.5579 599.479 56.4277C599.218 56.2975 598.307 55.207 596.744 53.1562C594.335 53.1562 592.48 54.0352 591.178 55.793C589.908 57.5182 589.273 61.9941 589.273 69.2207C589.273 75.8288 589.355 81.5254 589.518 86.3105H597.184C597.77 87.3848 598.062 88.5892 598.062 89.9238C598.062 91.0632 597.818 91.8607 597.33 92.3164C596.874 92.7721 595.963 93 594.596 93H569.693C569.107 91.6328 568.814 90.347 568.814 89.1426C568.814 88.1335 569.042 87.4173 569.498 86.9941C569.954 86.5384 570.686 86.3105 571.695 86.3105H575.26C575.423 81.5254 575.504 75.9753 575.504 69.6602C575.504 60.5456 575.064 55.1582 574.186 53.498C573.339 51.8379 571.842 51.0078 569.693 51.0078C569.107 49.7057 568.814 48.4036 568.814 47.1016ZM637.271 51.7402C634.863 51.7402 633.023 52.7168 631.754 54.6699C630.484 56.623 629.833 60.0247 629.801 64.875H632.389C636.002 64.875 638.753 64.7773 640.641 64.582C642.561 64.3542 643.684 63.9961 644.01 63.5078C644.335 62.987 644.498 62.1406 644.498 60.9688C644.498 58.0391 643.863 55.7767 642.594 54.1816C641.324 52.554 639.55 51.7402 637.271 51.7402ZM639.225 43.293C645.995 43.293 650.911 44.8392 653.971 47.9316C657.031 50.9915 658.561 55.8418 658.561 62.4824C658.561 65.7702 657.91 68.1139 656.607 69.5137C655.305 70.9134 652.457 71.6133 648.062 71.6133H629.898C629.996 75.8776 630.956 79.2305 632.779 81.6719C634.602 84.0807 637.809 85.2852 642.398 85.2852C646.891 85.2852 651.513 83.9831 656.266 81.3789C657.958 83.0391 658.805 84.8294 658.805 86.75C658.805 89.3542 656.884 91.1771 653.043 92.2188C649.234 93.2279 644.758 93.7324 639.615 93.7324C630.761 93.7324 624.332 91.9421 620.328 88.3613C616.324 84.7806 614.322 78.8724 614.322 70.6367C614.322 62.0755 616.568 55.3861 621.061 50.5684C625.585 45.7181 631.64 43.293 639.225 43.293ZM690.25 93.9766C681.233 93.9766 674.934 92.3164 671.354 88.9961C667.773 85.6432 665.982 79.9141 665.982 71.8086C665.982 62.694 668.31 55.6628 672.965 50.7148C677.652 45.7669 684.635 43.293 693.912 43.293C698.795 43.293 702.164 43.7161 704.02 44.5625C705.908 45.4089 706.884 46.8249 706.949 48.8105C706.949 51.3496 706.152 53.6608 704.557 55.7441C699.153 53.0749 694.758 51.7402 691.373 51.7402C687.988 51.7402 685.481 52.9447 683.854 55.3535C682.258 57.7298 681.461 61.929 681.461 67.9512C681.461 73.9082 682.242 78.3353 683.805 81.2324C685.4 84.097 688.281 85.5293 692.447 85.5293C695.833 85.5293 700.178 84.276 705.484 81.7695C706.852 83.6576 707.535 85.6432 707.535 87.7266C707.535 89.8424 705.81 91.4212 702.359 92.4629C698.909 93.472 694.872 93.9766 690.25 93.9766ZM744.889 89.2402C742.447 90.4772 739.664 91.584 736.539 92.5605C733.414 93.5046 730.468 93.9766 727.701 93.9766C722.981 93.9766 719.514 92.8861 717.301 90.7051C715.12 88.5241 714.029 85.4642 714.029 81.5254C714.029 76.0241 715.917 71.9388 719.693 69.2695C723.469 66.6003 729.426 65.2656 737.564 65.2656H742.887C742.594 60.2526 741.764 56.8346 740.396 55.0117C739.029 53.1562 736.979 52.2285 734.244 52.2285C732.747 52.2285 731.119 52.4238 729.361 52.8145C728.222 54.9629 727.538 56.1022 727.311 56.2324C727.115 56.3626 725.992 56.6556 723.941 57.1113C721.923 57.5671 720.491 57.4206 719.645 56.6719C718.798 55.9232 717.936 54.6048 717.057 52.7168C716.21 50.8288 715.787 49.2337 715.787 47.9316C715.787 47.1178 716.113 46.4831 716.764 46.0273C717.447 45.5716 719.921 45.0833 724.186 44.5625C728.45 44.0417 732.991 43.7812 737.809 43.7812C743.538 43.7812 748.03 44.7741 751.285 46.7598C754.54 48.7129 756.168 52.5215 756.168 58.1855V71.125C756.168 78.319 756.477 82.7461 757.096 84.4062C757.714 86.0339 758.821 86.6686 760.416 86.3105C760.904 87.222 761.148 88.1172 761.148 88.9961C761.148 90.4609 760.27 91.584 758.512 92.3652C756.786 93.1139 754.443 93.4883 751.48 93.4883C750.178 93.4883 749.153 93.3255 748.404 93C747.656 92.6745 746.484 91.4212 744.889 89.2402ZM742.887 73.0293C740.543 72.541 738.167 72.2969 735.758 72.2969C733.023 72.2969 731.07 72.7526 729.898 73.6641C728.727 74.5755 728.141 76.3008 728.141 78.8398C728.141 81.0534 728.71 82.7298 729.85 83.8691C731.021 84.9759 732.714 85.5293 734.928 85.5293C736.686 85.5293 738.232 85.1549 739.566 84.4062C740.934 83.6576 741.829 82.5996 742.252 81.2324C742.675 79.8327 742.887 78.026 742.887 75.8125V73.0293ZM792.105 43.293C797.021 43.293 800.813 43.765 803.482 44.709C806.152 45.6204 807.486 47.1667 807.486 49.3477C807.486 51.6589 806.559 54.0026 804.703 56.3789C797.672 53.2865 792.285 51.7402 788.541 51.7402C786.555 51.7402 785.074 52.1146 784.098 52.8633C783.154 53.612 782.682 54.6862 782.682 56.0859C782.682 57.5508 783.316 58.8203 784.586 59.8945C785.888 60.9688 788.867 62.3359 793.521 63.9961C798.958 65.8516 802.815 67.8861 805.094 70.0996C807.405 72.3132 808.561 75.2266 808.561 78.8398C808.561 83.7227 806.559 87.4661 802.555 90.0703C798.583 92.6745 793.196 93.9766 786.393 93.9766C780.11 93.9766 775.634 93.5534 772.965 92.707C770.296 91.8281 768.945 90.0378 768.912 87.3359C768.912 85.3177 769.71 83.332 771.305 81.3789C777.783 84.1458 783.528 85.5293 788.541 85.5293C790.592 85.5293 792.187 85.1875 793.326 84.5039C794.465 83.8203 795.035 82.681 795.035 81.0859C795.035 79.2305 794.026 77.7493 792.008 76.6426C790.022 75.5358 786.816 74.1361 782.389 72.4434C777.636 70.6204 774.234 68.6673 772.184 66.584C770.165 64.4681 769.156 61.7663 769.156 58.4785C769.156 53.8561 771.174 50.1777 775.211 47.4434C779.28 44.6764 784.911 43.293 792.105 43.293ZM821.646 44.709L826.48 30.0117C828.141 30.5 829.671 31.1348 831.07 31.916C832.503 32.6973 833.577 33.5924 834.293 34.6016C835.042 35.6107 835.416 38.1009 835.416 42.0723V44.709H851.92C852.473 46.0111 852.75 47.3945 852.75 48.8594C852.75 50.0964 852.522 50.9264 852.066 51.3496C851.611 51.7728 850.732 51.9844 849.43 51.9844H835.416V71.2715C835.416 76.8704 835.888 80.679 836.832 82.6973C837.776 84.7155 839.339 85.7734 841.52 85.8711C843.733 85.9362 846.419 85.1549 849.576 83.5273C850.52 84.7969 850.992 86.2454 850.992 87.873C850.992 90.0866 849.82 91.584 847.477 92.3652C845.165 93.1139 841.552 93.4883 836.637 93.4883C831.266 93.4883 827.424 92.4141 825.113 90.2656C822.835 88.1172 821.695 83.9505 821.695 77.7656V69.2695C821.695 63.8984 821.533 58.1367 821.207 51.9844H816.227C815.641 50.5846 815.348 49.1686 815.348 47.7363C815.348 46.6296 815.559 45.8483 815.982 45.3926C816.438 44.9368 817.187 44.709 818.229 44.709H821.646Z" fill="white"/>
</g>
<defs>
<filter id="filter0_d_341_6109" x="0.0253906" y="23.4199" width="861.725" height="92.0801" filterUnits="userSpaceOnUse" color-interpolation-filters="sRGB">
<feFlood flood-opacity="0" result="BackgroundImageFix"/>
<feColorMatrix in="SourceAlpha" type="matrix" values="0 0 0 0 0 0 0 0 0 0 0 0 0 0 0 0 0 0 127 0" result="hardAlpha"/>
<feOffset dx="3" dy="6"/>
<feGaussianBlur stdDeviation="3"/>
<feComposite in2="hardAlpha" operator="out"/>
<feColorMatrix type="matrix" values="0 0 0 0 0 0 0 0 0 0 0 0 0 0 0 0 0 0 0.25 0"/>
<feBlend mode="normal" in2="BackgroundImageFix" result="effect1_dropShadow_341_6109"/>
<feBlend mode="normal" in="SourceGraphic" in2="effect1_dropShadow_341_6109" result="shape"/>
</filter>
</defs>
</svg>
